<?xml version="1.0" encoding="UTF-8"?>
<!DOCTYPE svg PUBLIC "-//W3C//DTD SVG 1.1//EN" "http://www.w3.org/Graphics/SVG/1.1/DTD/svg11.dtd">
<!-- Creator: CorelDRAW -->
<svg xmlns="http://www.w3.org/2000/svg" xml:space="preserve" width="210mm" height="297mm" version="1.1" style="shape-rendering:geometricPrecision; text-rendering:geometricPrecision; image-rendering:optimizeQuality; fill-rule:evenodd; clip-rule:evenodd"
viewBox="0 0 21000 29700"
 xmlns:xlink="http://www.w3.org/1999/xlink"
 xmlns:xodm="http://www.corel.com/coreldraw/odm/2003">
 <defs>
  <style type="text/css">
   <![CDATA[
    .fil0 {fill:#121317}
    .fil9 {fill:#165A6B}
    .fil5 {fill:#1B748C}
    .fil4 {fill:#27AEC1}
    .fil7 {fill:#4CC6D5}
    .fil11 {fill:#90CCD4}
    .fil8 {fill:#991B23}
    .fil10 {fill:#C8F9FD}
    .fil2 {fill:#D12026}
    .fil3 {fill:#E26325}
    .fil1 {fill:#F4A71C}
    .fil6 {fill:white}
   ]]>
  </style>
 </defs>
 <g id="Capa_x0020_1">
  <metadata id="CorelCorpID_0Corel-Layer"/>
  <path class="fil0" d="M9305.84 20070.3c3.27,-2.2 9.76,2.99 9.77,6.68 0.01,1.51 4.13,2.81 4,2.73 -0.8,-0.54 -77.64,33.79 -13.77,-9.41zm1328.19 -3421.05l-107.06 53.43c-62.68,19.65 -105.65,23.48 -166.55,33.43 92.34,-49.4 136.98,-84.44 273.61,-86.86zm-646.93 395.55l2043.57 -276.93c323.54,-46.26 658.5,-107.39 971.58,-172.49l928.1 -206.05c-1116.46,363.49 -2592.63,623.17 -3943.25,655.47zm4954.75 -3034.88c-76.7,40.98 -99.98,59.61 -202.57,82.53l202.57 -82.53zm308.88 -2535.52c72.23,-74.85 221.85,-127.03 314.91,-175.12 96.76,-49.99 241.13,-121.32 333.86,-185.81l40.87 8.93c8.28,11.26 -558.66,318.81 -689.64,352zm-7885.84 5668.95c0,1245.35 625.43,2354.6 1352.62,2809.79 213.21,133.46 389.06,268.98 642.81,406.38 239.76,129.82 475.27,239.89 732.43,356.29 280.93,127.16 1302.88,543.79 1621.78,543.13 -53.8,-34.11 -122.12,-99.59 -188.03,-143.5 -403.11,-268.52 -1022.79,-883.33 -1300.21,-1260.49 -435.91,-592.67 -650.87,-1472.44 -219.78,-2167.7 8.57,-1.9 22.04,-10.86 26.25,-2.99l359.98 46.84c1740.69,285.16 3419.95,-143.72 4456.77,-1442.26l401.53 -520.2c-100.78,-91.1 -23.47,-29.28 -264.48,56.88 -1098.53,392.74 -2043.41,415.05 -3203.46,592.89 -290.65,44.56 -952.29,236.7 -1149.07,230.84l100.94 -63.7c859.66,-370.82 2561.58,-598.17 3898.19,-1291.91 161.64,-83.9 287.25,-165.81 414.44,-244.53 85,-52.6 114.71,-60.18 199.59,-127.52 70.72,-56.12 106.77,-91.92 181.74,-142.87 653.19,-443.79 1426.4,-1526.83 1485.39,-2365.61 -324.44,289.33 -594.28,510.21 -1088.24,751.55 -1645.67,804.03 -3940.5,1199.01 -5587.12,2110.18l-1147.98 752.37c-295.07,251.13 -604.04,621.48 -804.13,1059.44 -157.75,345.27 -327.07,1156.35 -114.16,1504.47 -3.32,-485.77 -28.57,-722.75 138.05,-1173.4 109.97,-297.44 349.17,-643.37 531.61,-814.05 570.52,-533.72 871.97,-735.46 1711.05,-1075.58 1164.8,-472.16 2438.11,-815.63 3647.71,-1240.47 172.31,-60.51 366.1,-156.48 538.17,-195.17 -309.43,228.08 -1969.23,762.99 -2482.93,934.67 -907.6,303.32 -1674.94,614.93 -2431.08,1013.95 -650.88,343.47 -1372.77,928.79 -1541.03,1815.87 -87.69,462.33 1.1,964.09 215.58,1335.56 127.44,220.74 205.15,311.89 354.67,482.95 159.83,182.85 301.11,250.23 451.35,394.85 -401.25,-137.65 -935.49,-652.02 -1145.3,-1032.78 -856.45,-1554.19 -280.55,-3465.91 1143.06,-4544.75 369.18,-279.79 526.73,-423.6 979.79,-686.26 1342.99,-778.6 1992.3,-1011.78 3413.16,-1636.36 226.84,-99.71 1457.16,-681.04 1554.18,-695.75l-109.44 86.61c-1082.77,617.29 -2781.93,1423.46 -3998.21,2064.49 -1301.22,685.8 -2755.57,1667.08 -3169.01,3028.05 -108.39,356.82 -216.64,1215.86 -36.85,1541.34 76.35,-852.49 78.65,-1174.43 554.99,-1814.58 724.24,-973.32 1851.66,-1489.93 3016.38,-1962.4 1527.01,-619.45 2992.91,-1025.68 4338.45,-1942.95 1085.32,-739.87 2340.78,-2322.45 2347.23,-3749.56l-520.95 651.69c-268.62,321.32 -583.56,507.27 -806.53,690.56 -638.78,525.14 -2233.02,1269.15 -2974.31,1598.95 -548.06,243.82 -1160.12,469.72 -1711.13,737.91 -1050.23,511.17 -2223.68,918.37 -3154.78,1685.63 -442.66,364.77 -802.65,659.86 -1159.15,1235.05 -313.27,505.42 -502.53,1151.65 -502.53,1818.16z"/>
  <path class="fil1" d="M7811.74 14809.43c14.87,-79.5 -5.06,-17.39 25.46,-68.31 93.71,-156.35 -101.95,63.55 39.26,-27.99 -8.85,-49.2 -22.62,-41.55 29.28,-33.36l48.33 -47.78 25.92 -40.46 71.17 -84.69c-2.65,-49.96 -17.7,-41.53 33.36,-36.14 -4.36,-46.37 -17.11,-36.55 32.45,-34.38 36.03,-82.08 109.29,-134.06 115.76,-134.96l44.94 -40.39 8.96 -2.12c1.06,-47.32 -13.27,-36.95 35.91,-37.35l56.46 -66.35 37.05 -27.88 -69.69 -37.77 -32.82 -97.57c-209.94,159.35 -278.92,180.32 -462.01,180.11 113.75,-302.24 733.54,-854.39 957.97,-1077.77 331.5,-329.97 708.1,-611.59 1060.58,-924.79 682.4,-606.35 926.52,-824.12 1520.56,-1491.63 178.81,-200.93 351.41,-505 405.07,-555.92 -350.51,181.46 -730.08,341.31 -1090.42,519.72 -364.96,180.69 -696.46,344.19 -1053.52,533.19 -1322.16,699.86 -2688.46,1768.1 -3102.27,3178.24 -130.51,444.76 -175.28,831.05 -157.51,1342.52 21.36,614.9 170.34,951.42 208.57,1311.17 -185.68,-316.16 -326.62,-1190.34 -329.66,-1650.05 -9.46,-1429.72 630.02,-2433.17 1679.36,-3346.62 169.99,-147.96 423.75,-293.22 571.16,-437.88 -111.28,-22.86 -37.08,56.32 -119.78,-81.93 -9.28,-15.51 -39.03,-133.59 -41.6,-147.52 -25.83,-139.33 -38.51,-203.92 -4.03,-264.97l-74.72 66.15 -168.45 146.7 -25.16 -12.66 141.73 -109.74c-106.12,53.82 -116.06,58.26 -184.41,124.87 40.49,44.38 53.45,14.42 -40.1,23.4 -1.45,45.4 11.73,34.33 -37.82,34.81l-34.02 25.78c-49.11,72.57 -120.39,109.08 -224.31,198.65 -178.83,154.11 -190.73,221.73 -244.24,179.58l332.46 -273.46c-140.72,87.09 -241.04,155.75 -376.23,302.3 48.33,24.09 63.72,-1.14 -8.24,28.85 -1035.18,828.19 -1498.37,2258.35 -1431.99,3575.73 72.24,1433.43 835.41,2660.36 1551.02,3504.88 48.69,-46.26 -145.23,-390.97 -175.48,-457.27 -207.15,-453.98 -313.77,-1120.77 -261.33,-1621.47 96.77,-923.8 301.31,-1266.85 675.54,-1932.56 -68.99,46.93 -22.58,38.8 -62.05,16.92 15.14,-14.34 37.77,-38.06 48.65,-47.71 34.29,-30.42 23.5,-20.3 54.88,-42.12z"/>
  <path class="fil2" d="M11634.22 12127.64c180.4,-56.47 1688.54,-902.39 1861.55,-1001.53 731.22,-419.01 1886.22,-1262.28 2446.36,-1830.72 285.07,-289.28 1102.52,-1165 1329.38,-1514.38 54.57,-84.05 515.88,-809.45 547.29,-833.92 -545.7,-69.61 -281.3,-339.96 -280.35,-684.12 -62.62,58.5 -78.29,65.54 -141.71,118.25 -63.86,53.05 -85.57,80.32 -140.17,124.3l-295.02 201.24c18.74,-30.89 33.34,-58.89 52.49,-98.84l-81.9 92.42c11.41,85.91 64.44,-71.29 -16.86,35.9 -72.03,94.96 -642.78,489.17 -706.68,512.79l145.68 -102.84c75.96,-64.06 -74.72,60.53 34.97,-29.86l128.52 -102.45c5.6,-4.09 13.43,-9.81 19.14,-13.78l282.27 -201.58c-138.16,67.62 -206.41,127.06 -330.64,219.72 -46.46,34.65 -92.79,71.35 -148.23,111.65 -63.38,46.09 -115.04,72.8 -172.39,121.85 9.55,6.28 101.62,-9.66 -23.15,32.17l-30.63 63.53c-53.8,-41.58 -51.56,2.37 -25.38,-66.4 -170.07,148.4 -382.2,249.14 -570.06,368.39 -921.31,584.78 -2266.4,1153.57 -3280.48,1600.81 -454.96,200.65 -968.85,375.98 -1381.77,587.9 -158.36,176.92 -102.55,244.74 4.49,414.51 91.99,-7.86 40.14,-2.97 105.36,-17.81l111.47 -31.62c160.46,-24.41 3855.78,-1727.8 3934.21,-1812.22 0,-70.93 -16.05,-50.69 69.26,-36.17l141.08 -73.4c-31.14,133.63 8.15,9.49 -16.06,66.82 -2.62,6.22 -7.58,19.89 -10.57,26.49l-24.89 41.25c-45.07,57.52 -421.69,745.28 -711.73,1116.03 -144.26,184.4 -257.62,337.93 -415.21,516.3 -152.37,172.44 -291.52,310.93 -455.78,482.65 -233.11,243.68 -570.84,523.45 -844.19,748.53 -38.1,31.38 -41.33,28.8 -71.8,60.09l-86.81 86.66c-3.2,1.44 -13.11,4.52 -16.74,6.23l-859.07 580.17c-181.25,117.09 -139.09,40.51 -75.25,114.99zm-64.85 33.96l26.57 -4.34c-57.21,-43.87 -76.86,-91.15 -26.57,4.34zm-83.02 38.31l59.54 -6.5c-101,-97.99 -37.63,-51.35 -59.54,6.5z"/>
  <path class="fil3" d="M15170.8 8415.99c-180.44,28.98 -1415.06,718.06 -1674.29,860.06 -290.93,159.37 -561.52,290.31 -848.58,437.41 -275.65,141.24 -568.83,287.56 -852.22,408.47 -53.66,50.92 -226.26,354.99 -405.07,555.92 -594.04,667.51 -838.16,885.28 -1520.56,1491.63 -352.48,313.2 -729.08,594.82 -1060.58,924.79 -224.43,223.38 -844.22,775.53 -957.97,1077.77 183.09,0.21 252.07,-20.76 462.01,-180.11l32.82 97.57 69.69 37.77c378.77,-246.44 435.76,-436.59 1451.61,-1034.84l1618.69 -892.52c21.91,-57.85 -41.46,-104.49 59.54,-6.5l23.48 -31.81c-50.29,-95.49 -30.64,-48.21 26.57,-4.34l38.28 -29.62c-63.84,-74.48 -106,2.1 75.25,-114.99l859.07 -580.17c3.63,-1.71 13.54,-4.79 16.74,-6.23l86.81 -86.66c30.47,-31.29 33.7,-28.71 71.8,-60.09 273.35,-225.08 611.08,-504.85 844.19,-748.53 164.26,-171.72 303.41,-310.21 455.78,-482.65 157.59,-178.37 270.95,-331.9 415.21,-516.3 290.04,-370.75 666.66,-1058.51 711.73,-1116.03l24.89 -41.25c2.99,-6.6 7.95,-20.27 10.57,-26.49 24.21,-57.33 -15.08,66.81 16.06,-66.82l-141.08 73.4c-85.31,-14.52 -69.26,-34.76 -69.26,36.17l69.26 -36.17c24.59,-5.68 40.55,21.67 51.54,-11.49 12.98,-39.1 2.63,-37.75 59.07,19.88 -67.78,-2.19 -46.52,-11.49 -21.05,52.77zm-6848.26 5805.51c-49.18,0.4 -34.85,-9.97 -35.91,37.35l-8.96 2.12 8.96 -2.12 35.91 -37.35 56.46 -66.35 -56.46 66.35zm-205.57 214.82c-49.56,-2.17 -36.81,-11.99 -32.45,34.38 -51.06,-5.39 -36.01,-13.82 -33.36,36.14l-71.17 84.69 -25.92 40.46 -48.33 47.78c-51.9,-8.19 -38.13,-15.84 -29.28,33.36 -141.21,91.54 54.45,-128.36 -39.26,27.99 -30.52,50.92 -10.59,-11.19 -25.46,68.31 -31.38,21.82 -20.59,11.7 -54.88,42.12 -10.88,9.65 -33.51,33.37 -48.65,47.71 39.47,21.88 -6.94,30.01 62.05,-16.92l41.48 -72.91 64.72 -96.3c50.68,11.63 35.04,17.11 29.28,-33.36 52.93,-22.89 20.25,52.28 48.33,-47.78l25.92 -40.46 71.17 -84.69c51.07,1.79 37.69,11.94 33.36,-36.14 48.13,5.42 33.42,13.2 32.45,-34.38l115.76 -134.96c-6.47,0.9 -79.73,52.88 -115.76,134.96z"/>
  <path class="fil4" d="M3211.62 9738.83c-125.12,345.84 67.61,1168.18 189.67,1480.88 364.81,934.62 1078.19,1893.5 1861.98,2543.14 156.59,129.79 338.15,333.7 538.74,407 65.5,-472.27 271.34,-869.39 425.25,-1277.44l-603.43 -656.29c-435.91,-481.5 -735.46,-921.42 -1073.12,-1463.66 -100.28,-161.05 -416.83,-731.53 -372.13,-834.62 -4.41,-91.9 -99.54,-333.25 -147.81,-433.87 -123.09,-122.39 -238,-59.09 -384,43.7 -124.78,87.84 -282.74,161.56 -381.94,270.92 -52.51,-38.64 -29.41,59.71 -53.21,-79.76zm960.7 230.42l26.26 32.65 -26.26 -32.65zm109.1 195.19c-4.7,62.13 -22.61,51.98 42.06,41.65 10.91,-56.77 23.32,-41.65 -42.06,-41.65zm37.35 51.11c-8.41,72.39 -34.82,69.52 31.09,53.15l-31.09 -53.15z"/>
  <path class="fil5" d="M6061.61 12368.89c67.02,80.18 102.76,113.31 156.14,172.23l147.82 129.02c27.87,-45.76 33.87,-63.91 60.38,-116.42l-99.61 90.3c-50.73,-135.88 -120.89,-196.06 -264.73,-275.13zm-409.63 -1278.45c-349.73,-586.39 -612.65,-692.56 -992.27,-1589.13 -310.04,-732.25 -394.98,-1341.42 -327.33,-2210.5 -115.79,63.59 -2.65,-9.21 -77.47,56.08l-153.51 178.05c-455.2,594.26 -908.67,1485.84 -889.78,2213.89 23.8,139.47 0.7,41.12 53.21,79.76 99.2,-109.36 257.16,-183.08 381.94,-270.92 146,-102.79 260.91,-166.09 384,-43.7 48.27,100.62 143.4,341.97 147.81,433.87l-6.26 31.41 26.26 32.65 82.84 162.54c65.38,0 52.97,-15.12 42.06,41.65l-4.71 9.46 31.09 53.15c77.45,234.09 594.17,910.01 744.62,1088.87l898.06 950.8c-123.62,-208.58 -119.92,-143.02 -173.93,-223.31 5.73,5.48 90.69,66.8 90.86,66.85 3.59,1.08 13.42,3.92 17.12,4.33l35.71 -3.01c72.99,-16.97 -5.04,7.31 56.28,-29.49 -19.28,30.05 -94.13,66.35 27.48,196.12 63.66,67.94 -1.72,7.93 69.99,57.02l73.49 19.64c122.09,15.51 -45.69,-79.45 19.11,7.71 39.52,53.15 -57.42,-0.85 135.86,149.82 24.44,19.05 -28.07,72.35 44.25,-72.72l83.86 -128.64c-63.15,45.05 -23.34,1.91 -84.11,68.83 -57.02,62.82 -32.74,28.43 -61.36,100.35 -87.06,-128.71 -29.91,-34.52 5.89,-127.59l-3.1 -26.41c54.71,-87.3 42.63,-243.57 27.54,-274.8 -64.68,-133.76 23.03,92.19 -39.27,-70.2 86.42,25.76 109.76,-9.55 122.53,45.02 31.88,136.19 -161.08,-100.01 -8.2,24.83 54.22,44.27 -3.42,31.92 67.26,-5.74 -264.39,-282.91 -15.79,-63.58 -251.6,-232.74 -8.9,-6.39 -93.03,-37.39 -130.67,-123.03 -14.38,-32.68 -8.52,-70 -70.39,-122.85 -5.45,-4.65 -13.78,-10.88 -19.62,-15 -5.67,-4 -14.94,-9.19 -20.75,-12.62l-73.7 -29.09c-21.51,-10.07 -65.71,22.05 -14.03,-28.09l23.35 -13.86c1.5,-0.91 9.91,-4.08 14.45,-6.76 -121.66,-95.22 -135.88,-161.13 -186.64,-200.37l-41.66 -18.2c-78.45,-22.74 45.09,29.31 -38.05,-3.81 -9.67,-3.85 -55.6,-50.2 -72.35,-73.02 11.8,9.47 8.67,64.72 121.57,7.22 -114.6,-32.89 -211.04,-171.89 -204.27,-136.27 0.01,0.03 2.57,1.7 3.57,2.8 8.79,-6.52 31.4,-21.08 37.53,-20.13l75.44 29.28zm52.38 82.73c-15.42,62.6 -25.58,42.87 51.6,42.87 -13.7,-57.48 6.9,-47.16 -51.6,-42.87l-42.8 -79.88 42.8 79.88zm158.44 133.44l-63.03 -58.15c16.19,114.82 -31.08,38.55 63.03,58.15zm115.05 172.08c-17.54,67.52 -28.9,47.02 53.28,47.02 -14.84,-59.34 6.6,-47.75 -53.28,-47.02l-13.33 -48.75 -32.98 -26.31c-32.69,54.34 -33.87,38.35 32.98,26.31l13.33 48.75zm239.3 254.71c-9.38,39.9 -18.55,30.5 26.37,29.04 -18.02,64.31 -35.97,57.46 32.84,38.92 -20.25,67.11 -27.92,43.56 58.79,43.56 -14.35,-70.02 10.03,-62.14 -58.79,-43.56 17.5,-53.23 28.62,-40.38 -32.84,-38.92 18.96,-48.55 29.15,-39.98 -26.37,-29.04l-25.26 -42.51 -36.41 91.71c6.43,0.72 44.3,-33.84 61.67,-49.2z"/>
  <path class="fil4" d="M3689.27 13578.55l-25.73 -35.91c-136.76,-240.03 -151.2,-81.54 -307.06,-276.52 -37.53,-46.94 -48.89,-76.78 -90.92,-108.28 -94.51,-70.81 -184.35,-37.01 -284.61,7.87 -261.63,117.16 -97.03,130.11 -248.77,108 210.4,761.15 701.25,1335.63 1153.04,1731.52 507.1,444.34 1106.26,756.82 1831.2,1102.21 90.08,27.36 40.97,11.6 147.78,28.39l-14.37 -138.24c-5.34,-161.28 -68.56,-267.53 -48.78,-436.28 -93.76,-117.5 -63.39,-407.89 -87.71,-575.99 -372.74,-158.15 -1111.7,-665.1 -1479.96,-910.01 -235.79,-156.8 -354.37,-311.14 -501.86,-440.18 -83.5,-73.07 -116.97,-117.18 -204.64,-217.67l136.66 125.18 25.73 35.91 77.43 54.96 36.13 26.07 38.05 36.12 -38.05 -36.12 -36.13 -26.07 2.5 -77.38 -79.93 22.42z"/>
  <path class="fil6" d="M15081.24 8354.83l-69.26 36.17c-78.43,84.42 -3773.75,1787.81 -3934.21,1812.22 -6.23,5.04 -14.9,11.85 -19.02,14.79 -4.1,2.92 -14.17,10.91 -19.3,14.43l-126.89 71.98c-629.1,305.89 -1181.67,561.22 -1794.51,911.19 -210.14,120.01 -396.28,248.85 -596.63,356.61 -147.41,144.66 -401.17,289.92 -571.16,437.88 -1049.34,913.45 -1688.82,1916.9 -1679.36,3346.62 3.04,459.71 143.98,1333.89 329.66,1650.05 -38.23,-359.75 -187.21,-696.27 -208.57,-1311.17 -17.77,-511.47 27,-897.76 157.51,-1342.52 413.81,-1410.14 1780.11,-2478.38 3102.27,-3178.24 357.06,-189 688.56,-352.5 1053.52,-533.19 360.34,-178.41 739.91,-338.26 1090.42,-519.72 283.39,-120.91 576.57,-267.23 852.22,-408.47 287.06,-147.1 557.65,-278.04 848.58,-437.41 259.23,-142 1493.85,-831.08 1674.29,-860.06 -25.47,-64.26 -46.73,-54.96 21.05,-52.77 -56.44,-57.63 -46.09,-58.98 -59.07,-19.88 -10.99,33.16 -26.95,5.81 -51.54,11.49z"/>
  <path class="fil5" d="M3766.7 13633.51l36.13 26.07 38.05 36.12c72.7,81.82 117.06,77.34 204.49,149.1 111.59,91.62 131.45,98.42 225.49,165.06 161.73,114.62 301.02,218.3 461.98,323.5 154.67,101.09 895.82,540.69 1004.95,558.96l18.85 -490.4 -694.5 -447.4c-874.21,-558.57 -1632.74,-1166.79 -2217.97,-1984.72l-259.01 -419.5c-42.1,-50.89 -17.57,-25.55 -61.21,-62.08 -1.79,323.82 -1.11,635.83 36.83,947.8 40.24,330.69 115.28,543.89 171.4,837.69 151.74,22.11 -12.86,9.16 248.77,-108 100.26,-44.88 190.1,-78.68 284.61,-7.87 42.03,31.5 53.39,61.34 90.92,108.28 155.86,194.98 170.3,36.49 307.06,276.52l25.73 35.91 79.93 -22.42 -2.5 77.38z"/>
  <path class="fil3" d="M8356.01 11077.8c-34.48,61.05 -21.8,125.64 4.03,264.97 2.57,13.93 32.32,132.01 41.6,147.52 82.7,138.25 8.5,59.07 119.78,81.93 200.35,-107.76 386.49,-236.6 596.63,-356.61 612.84,-349.97 1165.41,-605.3 1794.51,-911.19l126.89 -71.98c5.13,-3.52 15.2,-11.51 19.3,-14.43 4.12,-2.94 12.79,-9.75 19.02,-14.79l-111.47 31.62c-65.22,14.84 -13.37,9.95 -105.36,17.81 -107.04,-169.77 -162.85,-237.59 -4.49,-414.51 -420.77,164.23 -875.89,368.34 -1297.97,574.41 -332.54,162.35 -930.6,448.36 -1202.47,665.25zm-126.6 90.45l-141.73 109.74 25.16 12.66 168.45 -146.7c-64.41,12.5 -18.41,-32.09 -51.88,24.3zm-224.51 148.27l-37.82 34.81 -34.02 25.78 -136.09 104.77 -332.46 273.46c53.51,42.15 65.41,-25.47 244.24,-179.58 103.92,-89.57 175.2,-126.08 224.31,-198.65l34.02 -25.78c49.55,-0.48 36.37,10.59 37.82,-34.81 93.55,-8.98 80.59,20.98 40.1,-23.4l-40.1 23.4zm-592.4 496.51c71.96,-29.99 56.57,-4.76 8.24,-28.85l-8.24 28.85z"/>
  <path class="fil4" d="M5145.19 16593.81c0,-54.58 15.41,-40.41 -43.77,-44.53 -50.63,43.29 82.88,46.61 -72.92,41.52 -5.54,-6.54 -6.55,-20.65 -7.61,-23.71l-18.94 -48.87c-114.03,7.26 -44.03,14.11 -67.08,-35l-42.05 -1.37c3.51,-67.46 18.56,-46.01 -64.94,-46.54l2.45 -2.6 -279.15 -182.75 -233.17 -96.02c-31.54,52.78 42.82,19.67 -71.28,53.1 -84.17,-86.79 104.9,73.9 -3.79,-37.49 -37.5,-38.42 -49.68,-14.45 -58.51,-16.16 -9.91,-1.91 -21.42,81.51 -30.09,-24.81 -6.44,-78.81 -29.37,-5.64 11.68,-38.55 124.1,97.36 -33.64,33.38 155.52,69.4 -129.88,-85.55 72.27,30.99 -36.92,-49.73 0.21,0.07 39.65,7.11 81.15,23.82l-94.98 -97.67c-31.95,-23.31 -51.29,-28.56 -92.41,-47.59 -59.82,21.96 -99.64,39.35 -68.34,70.48 -157.21,-44.7 -103.73,-43.06 -57.08,-126.66 -292.95,50.46 -69.84,49.65 -261.15,-5.85 -24.57,-7.13 -242.73,-3.59 -286.11,-179.41 -24.49,36.06 -18.87,0.16 -27.22,61.14 -0.74,5.4 11.89,54.83 16.37,71.18 -7.98,-131.81 18.96,15.17 -61.93,-58.13l59.85 101.16c62.69,-53.42 -22.32,-44.18 15.71,-11.85 46.43,39.49 -7.85,9.07 -18.38,21.09 46.28,93.53 118.86,239.04 207.15,287.97 41.65,22.36 58.16,36.53 62.67,28.32 2.25,-4.09 12.52,3.72 14.09,8.64l84.33 83.49c72.74,12.39 79.53,0.29 90.82,-3.88l55.08 163.54c-154.29,-245.94 -178.2,-107.81 -178.28,-107.74l0.26 -2.59c112.6,39.28 51.4,-54.91 84.64,84.39l-6.37 -7.73 52.82 32.63c7.2,5.13 16.17,10.92 23.67,16.65 7.01,5.36 14.22,11.32 20.95,16.9l6.51 -4.74c92.29,-33.49 -56.88,114.12 81.97,-0.71 58.62,-48.48 1.56,17.24 7.23,-86.35 6.23,18.35 25.02,117.42 29.26,124.6 69.89,118.16 66.61,-65.91 256.85,208.86 61.79,-23.81 95.09,-39.79 201.14,-24.31 173.09,25.27 23.76,-16.8 128.25,65.45l682.8 343.41c64.97,22.84 94.8,19.91 157.83,42.89l175.63 84.37c6.05,3.48 14.25,8.59 20.18,12.23 5.92,3.63 13.6,9.38 19.45,13.13 5.89,3.79 13.29,9.85 19.19,13.69 5.97,3.89 13.44,9.89 19.53,13.75 6.16,3.89 13.99,9.5 20.34,13.28 95.41,56.72 189.6,74.88 279.5,121.62l73.59 42.09c286.46,122.29 -57.98,29.54 295.89,121l-4.09 -7.43c-93.07,-73.13 -75.64,-32.74 -90.99,-138.61 -5.46,-100.85 -12.68,-110.47 -83.94,-202.74l-3.08 5.54c-3.73,-68.7 19.22,-56.86 -44.92,-56.86 -49.6,18.49 -18.68,-154.16 -221.04,-227.11 -233.75,-84.25 -77.33,17.32 -194.75,-58.82l-45.89 -32.19c-177,-104.42 -249.6,-69.44 -367.26,-128.71l-58.59 -37.76c-113.05,-70.07 -221.24,-120.93 -387.89,-91.19 148.9,-50.73 27.26,-41.82 1.22,-94.39 89.61,93.26 118.01,56.36 169.34,27.82zm-659.4 -400.85c-73.57,-79.09 84.23,-42.77 -113.9,-61.69l113.9 61.69zm-8.54 -9.03c6.27,51.38 -8.37,33.76 56.63,41.21 0,-68.98 18.63,-54.97 -56.63,-41.21zm112.76 52.36c3.08,61.78 -12.63,40.68 66.65,45.12 0,-81.09 21.38,-65.08 -66.65,-45.12zm65.3 33.9c1.75,59.43 -13.47,40.37 59.73,44.44 0,-75.62 20.91,-61.93 -59.73,-44.44zm176.13 89.95c-1.87,62.38 -15.67,41.05 64.44,43.14 0,-77.09 20.12,-61.13 -64.44,-43.14zm66.18 36.37c-3.78,61.84 -15.69,39.52 66.61,37.69 0,-69.02 16.11,-49.62 -66.61,-37.69z"/>
  <path class="fil5" d="M6250.05 17236.16c-14.63,-268.45 -227.76,-291.73 -478.03,-390.05 -175.35,-68.88 -454.41,-221.81 -626.83,-252.3 -51.33,28.54 -79.73,65.44 -169.34,-27.82 26.04,52.57 147.68,43.66 -1.22,94.39 166.65,-29.74 274.84,21.12 387.89,91.19l58.59 37.76c117.66,59.27 190.26,24.29 367.26,128.71l45.89 32.19c117.42,76.14 -39,-25.43 194.75,58.82 202.36,72.95 171.44,245.6 221.04,227.11zm-1148.63 -686.88l-99.47 -31.06 -67.08 -35 -42.05 -1.37 42.05 1.37c23.05,49.11 -46.95,42.26 67.08,35l18.94 48.87c1.06,3.06 2.07,17.17 7.61,23.71 155.8,5.09 22.29,1.77 72.92,-41.52zm-271.09 -116.57l-2.45 2.6 2.45 -2.6zm-1438.14 -1086.8l-50.67 -37.34c-56.71,13.24 -47.98,26.63 -41.86,-22.54 -85.15,-31.18 -80.35,-33.96 -131.24,-63.7 14.25,90.11 -20.63,-13.27 19.44,109.05l245.06 489.63c80.89,73.3 53.95,-73.68 61.93,58.13 -4.48,-16.35 -17.11,-65.78 -16.37,-71.18 8.35,-60.98 2.73,-25.08 27.22,-61.14 43.38,175.82 261.54,172.28 286.11,179.41 191.31,55.5 -31.8,56.31 261.15,5.85 -46.65,83.6 -100.13,81.96 57.08,126.66 -31.3,-31.13 8.52,-48.52 68.34,-70.48 41.12,19.03 60.46,24.28 92.41,47.59l94.98 97.67 6.12 -2.25c198.13,18.92 40.33,-17.4 113.9,61.69l-8.54 -9.03c75.26,-13.76 56.63,-27.77 56.63,41.21l17.3 24.82 38.83 -13.67c88.03,-19.96 66.65,-35.97 66.65,45.12l-1.35 -11.22c80.64,-17.49 59.73,-31.18 59.73,44.44 96.97,73.78 39.33,32.67 116.4,45.51 84.56,-17.99 64.44,-33.95 64.44,43.14l1.74 -6.77c82.72,-11.93 66.61,-31.33 66.61,37.69 138.98,125.41 884.25,401.41 1146.42,450.72 -22.72,-112.96 -82.34,-308.17 -126,-412.8 -64.88,-155.46 -153.79,-128.32 -347.77,-182.7 -270.53,-75.84 -557.76,-174.23 -806.79,-260.72 -318.52,-110.62 -1248.97,-451.42 -1437.9,-682.79zm925.82 808.03l3.53 5.49c-189.16,-36.02 -31.42,27.96 -155.52,-69.4 -41.05,32.91 -18.12,-40.26 -11.68,38.55 8.67,106.32 20.18,22.9 30.09,24.81 8.83,1.71 21.01,-22.26 58.51,16.16 108.69,111.39 -80.38,-49.3 3.79,37.49 114.1,-33.43 39.74,-0.32 71.28,-53.1zm-827.91 -222.53c10.53,-12.02 64.81,18.4 18.38,-21.09 -38.03,-32.33 46.98,-41.57 -15.71,11.85l-2.67 9.24zm2807.95 1356.07l-3.08 5.54 3.08 -5.54z"/>
  <path class="fil7" d="M3904.49 16465.82c47.88,67.44 17.09,26.79 53.55,69.37l113.84 120.22c249.54,284.34 547.6,489.01 903.01,694.87 264.33,153.11 1081.95,513 1476.74,500.14l126.35 3.4 -31.4 -120.4c-28.75,-79.76 -13.73,-52.31 -69.51,-97.16 -353.87,-91.46 -9.43,1.29 -295.89,-121l-73.59 -42.09c-89.9,-46.74 -184.09,-64.9 -279.5,-121.62 -6.35,-3.78 -14.18,-9.39 -20.34,-13.28 -6.09,-3.86 -13.56,-9.86 -19.53,-13.75 -5.9,-3.84 -13.3,-9.9 -19.19,-13.69 -5.85,-3.75 -13.53,-9.5 -19.45,-13.13 -5.93,-3.64 -14.13,-8.75 -20.18,-12.23l-175.63 -84.37c-63.03,-22.98 -92.86,-20.05 -157.83,-42.89l-682.8 -343.41c-104.49,-82.25 44.84,-40.18 -128.25,-65.45 -106.05,-15.48 -139.35,0.5 -201.14,24.31 -190.24,-274.77 -186.96,-90.7 -256.85,-208.86 -4.24,-7.18 -23.03,-106.25 -29.26,-124.6 -5.67,103.59 51.39,37.87 -7.23,86.35 -138.85,114.83 10.32,-32.78 -81.97,0.71l-6.51 4.74c-6.73,-5.58 -13.94,-11.54 -20.95,-16.9 -7.5,-5.73 -16.47,-11.52 -23.67,-16.65l-52.82 -32.63zm-207.24 -246.44c44.27,87.88 41.77,117.42 128.71,172.37 0.08,-0.07 23.99,-138.2 178.28,107.74l-55.08 -163.54c-11.29,4.17 -18.08,16.27 -90.82,3.88l-84.33 -83.49c-1.57,-4.92 -11.84,-12.73 -14.09,-8.64 -4.51,8.21 -21.02,-5.96 -62.67,-28.32zm128.97 169.78l84.64 84.39c-33.24,-139.3 27.96,-45.11 -84.64,-84.39zm2555.77 1101.06c15.35,105.87 -2.08,65.48 90.99,138.61 -45.16,-100.39 9.46,-12.32 -40.59,-84.62 -34.4,-49.7 -14.88,-20.66 -50.4,-53.99z"/>
  <path class="fil8" d="M17014.04 6607.92c-19.15,39.95 -33.75,67.95 -52.49,98.84l295.02 -201.24c54.6,-43.98 76.31,-71.25 140.17,-124.3 63.42,-52.71 79.09,-59.75 141.71,-118.25 -0.95,344.16 -265.35,614.51 280.35,684.12 124.41,-355.47 420.38,-803.97 625.32,-1468.35l52.14 -166.32c8.52,-20.66 25.38,-50.21 27.16,-53.47l-361.43 339.57c-274.79,306.24 -815.22,756.87 -1147.95,1009.4zm-194.86 190.6l-282.27 201.58c-5.71,3.97 -13.54,9.69 -19.14,13.78l-128.52 102.45c-109.69,90.39 40.99,-34.2 -34.97,29.86l-145.68 102.84c63.9,-23.62 634.65,-417.83 706.68,-512.79 81.3,-107.19 28.27,50.01 16.86,-35.9 -82.03,42.28 -77.63,15.19 -112.96,98.18zm-674.41 485.39l-56.01 -2.87c-26.18,68.77 -28.42,24.82 25.38,66.4l30.63 -63.53c124.77,-41.83 32.7,-25.89 23.15,-32.17 -54.35,-5.14 -43.97,-14.13 -23.15,32.17z"/>
  <path class="fil9" d="M5992.54 12308.37c38.14,58.32 -36.16,27.94 69.07,60.52 143.84,79.07 214,139.25 264.73,275.13l99.61 -90.3c42.16,-31.1 230.18,-313.12 270.87,-369.81 -52.88,-86.23 -90.79,-106.25 -165.53,-179.82 -40.33,-39.69 -54.76,-62.18 -97.34,-101.07 -60.84,-55.54 -31.81,-50.53 -98.8,-58.1 -86.71,0 -79.04,23.55 -58.79,-43.56 -68.81,18.54 -50.86,25.39 -32.84,-38.92 -44.92,1.46 -35.75,10.86 -26.37,-29.04 -17.37,15.36 -55.24,49.92 -61.67,49.2l36.41 -91.71c-24.33,-43.99 -21.98,-46.3 -65.11,-94.24 -2.57,-2.85 -42.1,-39.61 -46.78,-43.16 -39.27,-29.79 -1.76,-12.12 -48.87,-27.78 -82.18,0 -70.82,20.5 -53.28,-47.02l-13.33 -48.75c-66.85,12.04 -65.67,28.03 -32.98,-26.31l-68.74 -97.02c-94.11,-19.6 -46.84,56.67 -63.03,-58.15 -25.58,-40.86 31.34,-35.66 -43.81,-32.42 -77.18,0 -67.02,19.73 -51.6,-42.87l-42.8 -79.88 -9.58 -2.85 -75.44 -29.28c-6.13,-0.95 -28.74,13.61 -37.53,20.13 -1,-1.1 -3.56,-2.77 -3.57,-2.8 -6.77,-35.62 89.67,103.38 204.27,136.27 -112.9,57.5 -109.77,2.25 -121.57,-7.22 16.75,22.82 62.68,69.17 72.35,73.02 83.14,33.12 -40.4,-18.93 38.05,3.81l41.66 18.2c50.76,39.24 64.98,105.15 186.64,200.37 -4.54,2.68 -12.95,5.85 -14.45,6.76l-23.35 13.86c-51.68,50.14 -7.48,18.02 14.03,28.09l73.7 29.09c5.81,3.43 15.08,8.62 20.75,12.62 5.84,4.12 14.17,10.35 19.62,15 61.87,52.85 56.01,90.17 70.39,122.85 37.64,85.64 121.77,116.64 130.67,123.03 235.81,169.16 -12.79,-50.17 251.6,232.74 -70.68,37.66 -13.04,50.01 -67.26,5.74 -152.88,-124.84 40.08,111.36 8.2,-24.83 -12.77,-54.57 -36.11,-19.26 -122.53,-45.02 62.3,162.39 -25.41,-63.56 39.27,70.2 15.09,31.23 27.17,187.5 -27.54,274.8l3.1 26.41c-35.8,93.07 -92.95,-1.12 -5.89,127.59 28.62,-71.92 4.34,-37.53 61.36,-100.35 60.77,-66.92 20.96,-23.78 84.11,-68.83l-83.86 128.64c-72.32,145.07 -19.81,91.77 -44.25,72.72 -193.28,-150.67 -96.34,-96.67 -135.86,-149.82 -64.8,-87.16 102.98,7.8 -19.11,-7.71l-73.49 -19.64c-71.71,-49.09 -6.33,10.92 -69.99,-57.02 -121.61,-129.77 -46.76,-166.07 -27.48,-196.12 -61.32,36.8 16.71,12.52 -56.28,29.49l-35.71 3.01c-3.7,-0.41 -13.53,-3.25 -17.12,-4.33 -0.17,-0.05 -85.13,-61.37 -90.86,-66.85 54.01,80.29 50.31,14.73 173.93,223.31z"/>
  <path class="fil6" d="M9987.1 17044.8c1350.62,-32.3 2826.79,-291.98 3943.25,-655.47l-928.1 206.05c-313.08,65.1 -648.04,126.23 -971.58,172.49l-2043.57 276.93z"/>
  <path class="fil10" d="M5801.05 15561.31c36.86,-144.68 -8.97,-209.68 -17.94,-358.89 -9.99,-165.95 7.33,-237.25 -45.32,-310.1 -109.13,-18.27 -850.28,-457.87 -1004.95,-558.96 -160.96,-105.2 -300.25,-208.88 -461.98,-323.5 -94.04,-66.64 -113.9,-73.44 -225.49,-165.06 -87.43,-71.76 -131.79,-67.28 -204.49,-149.1l-38.05 -36.12 -36.13 -26.07 -77.43 -54.96 -25.73 -35.91 -136.66 -125.18c87.67,100.49 121.14,144.6 204.64,217.67 147.49,129.04 266.07,283.38 501.86,440.18 368.26,244.91 1107.22,751.86 1479.96,910.01 24.32,168.1 -6.05,458.49 87.71,575.99z"/>
  <path class="fil11" d="M5716.42 16107.44c41.18,37.26 -36.31,22.55 89.79,65.83 69.91,24 2.54,13.98 98.54,3.35 4.36,-151.5 -25.49,-142.27 -54.92,-179.03l14.37 138.24c-106.81,-16.79 -57.7,-1.03 -147.78,-28.39z"/>
  <path class="fil11" d="M6451.63 17850.42c26.97,16.88 24.14,25.32 82.91,42.01 30.91,8.78 64.34,8.34 76.67,9.18 0.81,-1.53 55.8,-3.01 -8.01,-104.32 -58.81,-93.37 -17.93,-21.42 -56.62,-63.87l31.4 120.4 -126.35 -3.4z"/>
  <path class="fil11" d="M3299.66 15286.03c-6.12,49.17 -14.85,35.78 41.86,22.54l50.67 37.34c0,-63.59 17.45,-51.77 -50.67,-37.34l-41.86 -22.54 -55.21 -46.95c-4.57,-3.25 -13.65,-9.76 -18.79,-13.11 -90.96,-59.27 -14.85,-21.26 -99.66,-46.45 11.13,162.14 31.11,119 61.86,151.86 -40.07,-122.32 -5.19,-18.94 -19.44,-109.05 50.89,29.74 46.09,32.52 131.24,63.7z"/>
 </g>
</svg>
