<?xml version="1.0" encoding="UTF-8"?>
<!DOCTYPE svg PUBLIC "-//W3C//DTD SVG 1.1//EN" "http://www.w3.org/Graphics/SVG/1.1/DTD/svg11.dtd">
<!-- Creator: CorelDRAW -->
<svg xmlns="http://www.w3.org/2000/svg" xml:space="preserve" width="195.176mm" height="199.157mm" version="1.1" style="shape-rendering:geometricPrecision; text-rendering:geometricPrecision; image-rendering:optimizeQuality; fill-rule:evenodd; clip-rule:evenodd"
viewBox="0 0 20120.42 20530.86"
 xmlns:xlink="http://www.w3.org/1999/xlink"
 xmlns:xodm="http://www.corel.com/coreldraw/odm/2003">
 <defs>
  <style type="text/css">
   <![CDATA[
    .fil1 {fill:#34A853}
    .fil2 {fill:#4284F4}
    .fil0 {fill:#EA4334}
    .fil3 {fill:#FBBB05}
   ]]>
  </style>
 </defs>
 <g id="Capa_x0020_1">
  <metadata id="CorelCorpID_0Corel-Layer"/>
  <g id="_2943204650320">
   <path class="fil0" d="M1095.58 5671.71l3414.98 2634.69 66.73 -159.15c109.06,-286.98 224.17,-567.85 375.16,-837.8 314.36,-562.01 433.65,-683.9 792.48,-1129.6 80.31,-99.76 149.75,-155.33 228.7,-256.48l498.96 -452.76c373.8,-302.73 583.77,-447.65 1017.61,-680.56 60.47,-32.46 94.23,-57.89 155.01,-87.57 54.84,-26.8 113.79,-46.79 168.56,-74.04l517.15 -210.63c1420.87,-499.75 2992.86,-419.05 4408.93,210.67 112.77,50.15 210.46,112.29 317.59,167.6 106.1,54.79 198.78,118.74 304.46,180.74 62.97,36.94 91.49,62.39 143.37,99.22 389.78,276.8 353.4,264.55 671.74,541.24l2953.1 -2943.8c-48.37,-33.93 -63.51,-54.7 -102.34,-93.57 -44.05,-44.09 -57.3,-46.91 -102.07,-84.54 -39.19,-32.97 -56.75,-59.08 -96.05,-90.56 -662.22,-530.43 -1124.01,-904.95 -1924.88,-1303.48 -269.77,-134.24 -483.05,-245.53 -775.76,-362.56 -263.08,-105.19 -586.59,-232.02 -851.69,-305.31 -664.95,-183.82 -1186.07,-319.02 -1897.86,-378.79 -213.09,-17.9 -481.49,-55.93 -710.49,-54.61 -513.67,2.94 -1036.47,-7.03 -1480,50.7 -244.45,31.82 -440.61,52 -674.27,90.83 -224.82,37.36 -422.87,77.77 -634.03,131.08 -718.05,181.29 -1031.28,293.15 -1706.69,569.98 -736.18,301.72 -1767.11,933.25 -2366.79,1440.08l-301.6 258.23c-279.37,224.93 -626.4,601.7 -866.19,850.63 -42.12,43.74 -46,60.34 -83.78,102.84 -35.31,39.73 -54.61,51.28 -89.92,96.68 -61.51,79.06 -117.5,141.42 -175.81,216.07l-933.06 1362.26c-41.2,76.19 -87.45,162.13 -134.23,238.99 -37.5,61.63 -110.15,193.79 -127.03,263.32z"/>
   <path class="fil1" d="M1095.58 14856.56c5.81,66.57 83.59,183.11 118.16,253.02 206.48,417.65 587.12,975.81 876.16,1363.17l341.33 423.79c308.48,394.17 1008.85,1056.05 1335.31,1314.57 350.88,277.84 459.59,366.44 859.71,633.17 598.21,398.77 1077.81,636.26 1718.34,912.87 859.52,371.18 1743.84,571.98 2692.43,703.89 823.07,114.46 2028.16,79.03 2850.27,-39.92 1275,-184.47 2543.84,-582.19 3646.1,-1243.12 698.96,-419.09 830.18,-553.57 1411.03,-1033.5 62.68,-51.79 65.82,-29.56 106.4,-106.9 -142.95,-83.67 -3318.33,-2571.69 -3329.32,-2585.94 -176.19,160.65 -965.61,529.87 -1179.44,604.38 -1661.03,578.82 -3289.58,523.99 -4877.77,-212.49l-839.7 -503.91c-242.47,-171.43 -521.44,-399.97 -732.51,-611.1 -429.62,-429.76 -669.26,-731.28 -1006.85,-1269.81 -356.93,-569.4 -448.87,-1003.88 -574.68,-1234.5 -225.86,141.8 -620.88,472.17 -859.95,650.54l-2342.81 1819.41c-80.1,63.5 -124.31,115.17 -212.22,162.35z"/>
   <path class="fil2" d="M13721.49 15451.67c10.99,14.25 3186.37,2502.27 3329.32,2585.94 27.3,-10.73 7.68,1.89 41.84,-25.23l485.71 -484.28c204.38,-212.35 630.52,-761.85 782.44,-990.35 95.28,-143.32 178.52,-272.47 272.55,-417.92 183.11,-283.23 479.49,-866.76 603.49,-1169.31 31.43,-76.7 77.61,-171.13 106.7,-247.87 292.75,-772.23 470.48,-1370.35 610.41,-2207.41 128.55,-768.89 212.09,-1751.5 139.6,-2642.89 -43,-528.75 -42.35,-717.97 -131.51,-1268.06 -36.98,-228.11 81.9,-186.51 -522.61,-186.51 -3060.43,0 -6120.84,0 -9181.27,0l0 3974.81 5523.69 0 -128.18 506.29c-151.81,490.63 -345.84,875.1 -625.61,1296.48 -94.15,141.8 -302.94,402.1 -426.79,524.93 -60.9,60.4 -93.65,123.31 -160.16,175.75 -199.18,157.02 -490.27,454.27 -719.63,575.63z"/>
   <path class="fil3" d="M1095.58 14856.56c87.9,-47.18 132.12,-98.85 212.22,-162.35l2342.81 -1819.41c239.06,-178.37 634.09,-508.74 859.95,-650.54 -5.98,-73.38 -38.74,-144.44 -60.06,-220.8 -343.02,-1228.59 -354.04,-2231.97 -4,-3464.47 21.98,-77.41 58.09,-163.9 64.06,-232.58l-3414.98 -2634.69c-69.86,85.21 -179.2,352 -236.46,474.21 -39.89,85.12 -67.38,163.52 -104.68,249.88 -843.21,1952.39 -960.93,4332.75 -446.38,6391.1 50.33,201.33 103.68,359.25 157,552.12 48.16,174.25 122.33,351.75 184.83,524.29l258.84 618.23c49.79,111.6 115.12,285.94 186.86,375.02z"/>
  </g>
 </g>
</svg>
